<svg width="320" height="220" viewBox="0 0 320 220" fill="none" xmlns="http://www.w3.org/2000/svg">
  <rect width="320" height="220" rx="24" fill="#101929"/>
  <path d="M48 64C48 55.7157 54.7157 49 63 49H257C265.284 49 272 55.7157 272 64V156C272 164.284 265.284 171 257 171H63C54.7157 171 48 164.284 48 156V64Z" fill="#18263B"/>
  <circle cx="97" cy="107" r="32" fill="#1F2F47"/>
  <path d="M80 107C80 97.6112 87.6112 90 97 90C106.389 90 114 97.6112 114 107" stroke="#4DE1FF" stroke-width="4" stroke-linecap="round"/>
  <circle cx="132" cy="139" r="8" fill="#4DE1FF" opacity="0.8"/>
  <circle cx="196" cy="139" r="8" fill="#BB86FC" opacity="0.8"/>
  <rect x="152" y="92" width="80" height="12" rx="6" fill="#425472"/>
  <rect x="152" y="116" width="56" height="10" rx="5" fill="#2B3B56"/>
  <rect x="152" y="138" width="96" height="10" rx="5" fill="#2B3B56" opacity="0.7"/>
  <text x="160" y="197" fill="#8AA6FF" font-family="'Space Grotesk', sans-serif" font-size="14" letter-spacing="0.04em">No signals yet</text>
  <text x="160" y="214" fill="#5B6D93" font-family="'Space Grotesk', sans-serif" font-size="11" letter-spacing="0.08em">Waiting for the next event</text>
</svg>
